<?xml version="1.0" standalone="no"?>
<!DOCTYPE svg PUBLIC "-//W3C//DTD SVG 20010904//EN" "http://www.w3.org/TR/2001/REC-SVG-20010904/DTD/svg10.dtd">
<svg version="1.0" xmlns="http://www.w3.org/2000/svg" width="300.000000pt" height="300.000000pt" viewBox="0 0 300.000000 300.000000" preserveAspectRatio="xMidYMid meet">
	<g transform="translate(0.000000,300.000000) scale(0.100000,-0.100000)" fill="#000000" stroke="none">
		<path d="M2131 2631 c-7 -5 -12 -11 -11 -15 0 -3 -1 -21 -4 -39 -12 -80 -14
-120 -5 -106 5 7 9 11 10 7 1 -5 3 -12 4 -18 1 -5 3 -15 4 -21 0 -5 5 -8 10
-4 9 5 26 -12 26 -27 0 -3 4 -10 9 -15 5 -5 6 -3 2 5 -9 14 3 16 24 2 13 -9
13 -10 0 -10 -13 0 -13 -1 0 -10 18 -12 33 -13 26 -2 -2 4 13 9 35 9 22 1 49
5 60 8 31 10 23 -14 -18 -54 -24 -22 -29 -30 -13 -20 23 15 70 74 70 89 0 3
-26 4 -58 2 -41 -3 -68 1 -90 12 -62 32 -96 113 -73 177 12 36 11 41 -8 30z" />
		<path d="M2073 2595 c-15 -14 -21 -24 -13 -23 11 2 14 -5 12 -25 -2 -18 1 -26
7 -22 6 3 11 15 11 25 0 10 4 21 9 25 8 4 12 45 4 45 -1 0 -15 -11 -30 -25z
m27 1 c0 -2 -7 -7 -16 -10 -8 -3 -12 -2 -9 4 6 10 25 14 25 6z" />
		<path d="M2030 2534 c-15 -38 -12 -111 6 -145 15 -30 15 -31 -25 -84 -23 -30
-41 -57 -41 -60 0 -3 25 13 55 36 52 39 57 41 85 29 17 -7 33 -11 35 -8 3 3
-13 11 -36 18 -31 10 -44 22 -55 48 -7 19 -11 39 -7 45 3 6 1 7 -5 3 -15 -9
-16 81 -2 118 5 14 7 26 5 26 -3 0 -10 -12 -15 -26z" />
		<path d="M2047 2513 c-10 -9 -9 -23 1 -23 5 0 9 7 9 15 0 17 -1 18 -10 8z" />
		<path d="M2245 2360 c-3 -5 -1 -10 4 -10 6 0 11 5 11 10 0 6 -2 10 -4 10 -3 0
-8 -4 -11 -10z" />
		<path d="M2127 2335 c3 -8 9 -12 14 -9 12 7 11 11 -5 17 -10 4 -13 1 -9 -8z" />
		<path d="M2198 2333 c7 -3 16 -2 19 1 4 3 -2 6 -13 5 -11 0 -14 -3 -6 -6z" />
		<path d="M2195 2300 l-40 -7 35 -1 c19 0 44 3 55 8 24 10 7 10 -50 0z" />
	</g>
</svg>
